<svg id="Camada_1" data-name="Camada 1" xmlns="http://www.w3.org/2000/svg" xmlns:xlink="http://www.w3.org/1999/xlink" viewBox="0 0 1920 628"><defs><style>.cls-1{fill:none;}.cls-2{clip-path:url(#clip-path);}.cls-3{fill:#662d91;}.cls-4{fill:#f14a24;}.cls-5{fill:url(#Gradiente_sem_nome_12);}.cls-6{fill:url(#Gradiente_sem_nome_10);}.cls-7{fill:#353535;}.cls-8{fill:url(#Gradiente_sem_nome_34);}.cls-9{fill:url(#Gradiente_sem_nome_35);}</style><clipPath id="clip-path"><circle class="cls-1" cx="477.13" cy="162.69" r="58.1"/></clipPath><linearGradient id="Gradiente_sem_nome_12" x1="178.58" y1="474.96" x2="342.52" y2="311.02" gradientUnits="userSpaceOnUse"><stop offset="0" stop-color="#f14a24"/><stop offset="0.22" stop-color="#eb492b"/><stop offset="0.54" stop-color="#d9453f"/><stop offset="0.93" stop-color="#bc3e60"/><stop offset="1" stop-color="#b63d67"/></linearGradient><linearGradient id="Gradiente_sem_nome_10" x1="335.56" y1="314.87" x2="497.42" y2="153" gradientUnits="userSpaceOnUse"><stop offset="0" stop-color="#b63d67"/><stop offset="0.12" stop-color="#a43971"/><stop offset="0.33" stop-color="#89347f"/><stop offset="0.55" stop-color="#753089"/><stop offset="0.77" stop-color="#6a2e8f"/><stop offset="1" stop-color="#662d91"/></linearGradient><linearGradient id="Gradiente_sem_nome_34" x1="815.32" y1="375.2" x2="939.28" y2="251.24" gradientUnits="userSpaceOnUse"><stop offset="0" stop-color="#f15a24"/><stop offset="0.47" stop-color="#b14556"/><stop offset="1" stop-color="#662d91"/></linearGradient><linearGradient id="Gradiente_sem_nome_35" x1="1631.08" y1="408.09" x2="1758.14" y2="281.03" gradientUnits="userSpaceOnUse"><stop offset="0" stop-color="#f15a24"/><stop offset="0.47" stop-color="#b14556"/><stop offset="1" stop-color="#662d91"/></linearGradient></defs><title>Logo_Conecta</title><g class="cls-2"><rect class="cls-3" x="419.04" y="104.59" width="116.2" height="116.2"/></g><circle class="cls-4" cx="194.94" cy="457.33" r="58.1"/><path class="cls-5" d="M455.44,429.12c0-.64,0-1.28.09-1.92l-55.91,58.7a21.21,21.21,0,0,1-20.27,6L220,453.3a21.2,21.2,0,0,1-15.31-14.57L158.34,281.4a21.2,21.2,0,0,1,5-20.54l51.61-54.19a22.07,22.07,0,0,0-28.84-29.89l-52.82,55.46a62.83,62.83,0,0,0-14.73,60.88l46.3,157.33a62.83,62.83,0,0,0,45.36,43.19l159.4,38.56A61.9,61.9,0,0,0,384.24,534a62.87,62.87,0,0,0,45.44-19.43l56.75-59.59a26.82,26.82,0,0,1-4.75.44A26.28,26.28,0,0,1,455.44,429.12Z"/><path class="cls-6" d="M557.5,334.88,511.2,177.56a62.83,62.83,0,0,0-45.36-43.2L306.44,95.8a62.79,62.79,0,0,0-60.08,17.68l-54.72,57.46a26.58,26.58,0,0,1,3.46-.25,26.27,26.27,0,0,1,26.24,26.24,26.68,26.68,0,0,1-.22,3.23l55.29-58.06a21.15,21.15,0,0,1,20.27-6L456.09,174.7a21.18,21.18,0,0,1,15.3,14.57l46.3,157.33a21.18,21.18,0,0,1-5,20.54L461,421.51a22.08,22.08,0,0,0,31.9,26.67l49.92-52.42A62.79,62.79,0,0,0,557.5,334.88Z"/><path class="cls-7" d="M630.68,311.5a91,91,0,0,1,5.84-31.9,85.51,85.51,0,0,1,44.31-48.29q16.14-7.69,36.74-7.69,24.33,0,42.08,10.67a73,73,0,0,1,16.16,13A15.88,15.88,0,0,1,773,271.09h0a15.85,15.85,0,0,1-20.74-2.38c-.32-.35-.64-.69-1-1a42.31,42.31,0,0,0-10.67-8.07,48.17,48.17,0,0,0-11.92-4.34,56.54,56.54,0,0,0-12.16-1.37q-12.92,0-22.47,5.22a49.31,49.31,0,0,0-15.89,13.53,59.6,59.6,0,0,0-9.56,18.86,71.51,71.51,0,0,0-3.22,21A68.47,68.47,0,0,0,669.16,335a59.74,59.74,0,0,0,10.55,19,52.71,52.71,0,0,0,16.39,13.16,44.79,44.79,0,0,0,21,5,55.41,55.41,0,0,0,12.42-1.49,47.36,47.36,0,0,0,12.28-4.72,46.59,46.59,0,0,0,10.81-8.32c.47-.48.93-1,1.37-1.49a15.29,15.29,0,0,1,19.21-3.52l.78.44a16,16,0,0,1,3.44,25.09c-.28.28-.56.56-.85.83a77.45,77.45,0,0,1-17.63,12.79,90.19,90.19,0,0,1-21,7.94,91.93,91.93,0,0,1-21.85,2.73,75.05,75.05,0,0,1-34.51-7.94,89.87,89.87,0,0,1-26.93-20.73A95.86,95.86,0,0,1,637,344.64,90.62,90.62,0,0,1,630.68,311.5Z"/><path class="cls-8" d="M877.16,402.36A80.06,80.06,0,0,1,842,394.79,86.12,86.12,0,0,1,815,374.68,93.28,93.28,0,0,1,791.26,313a88.51,88.51,0,0,1,6.58-33.76A93.08,93.08,0,0,1,816,250.68a86.35,86.35,0,0,1,27.44-19.74,81.44,81.44,0,0,1,34.51-7.32,77.35,77.35,0,0,1,34.88,7.82,87.2,87.2,0,0,1,26.93,20.48,94.28,94.28,0,0,1,17.38,28.8,90.57,90.57,0,0,1,6.21,32.77,89.22,89.22,0,0,1-6.46,33.64A91.34,91.34,0,0,1,939,375.43,86,86,0,0,1,911.67,395,81.47,81.47,0,0,1,877.16,402.36Z"/><path class="cls-7" d="M1021.43,287.41V384a17.26,17.26,0,0,1-17.26,17.26h0A17.26,17.26,0,0,1,986.91,384V241.67a18,18,0,0,1,18.05-18h0a18,18,0,0,1,14.14,6.82l87.14,109.76V241.13a17.27,17.27,0,0,1,17.27-17.26h0a17.26,17.26,0,0,1,17.26,17.26V382.31a18.93,18.93,0,0,1-18.93,18.93h0a18.91,18.91,0,0,1-14.77-7.08Z"/><path class="cls-7" d="M1301.13,385v2.25a14,14,0,0,1-14,14H1191a13.19,13.19,0,0,1-13.19-13.19V236.81A13.19,13.19,0,0,1,1191,223.62h93.89a14,14,0,0,1,14,14v2.25a14,14,0,0,1-14,14h-72.55v42.78h60.79a14,14,0,0,1,14,14h0a14,14,0,0,1-14,14h-60.79V371h74.8A14,14,0,0,1,1301.13,385Z"/><path class="cls-7" d="M1313.64,312.18a92,92,0,0,1,5.88-32.15,86.28,86.28,0,0,1,44.66-48.66q16.26-7.76,37-7.75,24.52,0,42.41,10.75A73.94,73.94,0,0,1,1460,247.54a16,16,0,0,1-2.86,23.92h0a16,16,0,0,1-21-2.48l-.9-1a42.92,42.92,0,0,0-10.76-8.13,48.52,48.52,0,0,0-12-4.38,57.37,57.37,0,0,0-12.26-1.37q-13,0-22.64,5.25a49.74,49.74,0,0,0-16,13.64,59.8,59.8,0,0,0-9.63,19,71.89,71.89,0,0,0-3.25,21.14,69,69,0,0,0,3.75,22.64A60.07,60.07,0,0,0,1363.05,355a53.2,53.2,0,0,0,16.51,13.26,45.11,45.11,0,0,0,21.14,5,55.63,55.63,0,0,0,12.51-1.5,46.68,46.68,0,0,0,23.27-13.13c.45-.47.9-.95,1.33-1.44a16.08,16.08,0,0,1,20.1-3.23h0a16.19,16.19,0,0,1,3.52,25.38c-.26.27-.54.54-.81.8A77.79,77.79,0,0,1,1442.86,393a90.74,90.74,0,0,1-21.14,8,92.35,92.35,0,0,1-22,2.76,75.58,75.58,0,0,1-34.77-8,90.6,90.6,0,0,1-27.15-20.89A96.9,96.9,0,0,1,1320,345.58,91.41,91.41,0,0,1,1313.64,312.18Z"/><path class="cls-7" d="M1618.28,254.41h-42.37V386.88a17.44,17.44,0,0,1-17.44,17.43h0A17.44,17.44,0,0,1,1541,386.88V254.41h-42.37a15.39,15.39,0,0,1-15.4-15.4h0a15.39,15.39,0,0,1,15.4-15.39h119.61a15.4,15.4,0,0,1,15.4,15.39h0A15.4,15.4,0,0,1,1618.28,254.41Z"/><path class="cls-9" d="M1633.79,404.38a15.5,15.5,0,0,1-14.36-21.3l60.51-149.77a15.48,15.48,0,0,1,14.31-9.69h0a15.49,15.49,0,0,1,14.33,9.59L1770.35,383a15.49,15.49,0,1,1-28.65,11.81l-47.25-114.67-46.29,114.57A15.49,15.49,0,0,1,1633.79,404.38Z"/></svg>